<?xml version="1.0" encoding="UTF-8" standalone="no"?>
<svg
   xmlns:dc="http://purl.org/dc/elements/1.1/"
   xmlns:cc="http://creativecommons.org/ns#"
   xmlns:rdf="http://www.w3.org/1999/02/22-rdf-syntax-ns#"
   xmlns:svg="http://www.w3.org/2000/svg"
   xmlns="http://www.w3.org/2000/svg"
   xmlns:sodipodi="http://sodipodi.sourceforge.net/DTD/sodipodi-0.dtd"
   xmlns:inkscape="http://www.inkscape.org/namespaces/inkscape"
   inkscape:export-ydpi="105.18587"
   inkscape:export-xdpi="105.18587"
   inkscape:export-filename="/Users/yorick/projects/MakersinChicago/static/img/television.png"
   sodipodi:docname="logo.svg"
   inkscape:version="1.0beta1 (32d4812, 2019-09-19)"
   version="1.1"
   id="svg2"
   height="85mm"
   width="85mm">
  <defs
     id="defs4" />
  <sodipodi:namedview
     units="mm"
     fit-margin-bottom="0"
     fit-margin-right="0"
     fit-margin-left="0"
     fit-margin-top="0"
     inkscape:snap-global="false"
     inkscape:document-rotation="0"
     showborder="true"
     inkscape:window-maximized="0"
     inkscape:window-y="23"
     inkscape:window-x="0"
     inkscape:window-height="717"
     inkscape:window-width="1280"
     showgrid="false"
     inkscape:current-layer="g883"
     inkscape:document-units="px"
     inkscape:cy="100"
     inkscape:cx="254.28571"
     inkscape:zoom="0.35"
     inkscape:pageshadow="2"
     inkscape:pageopacity="0.0"
     borderopacity="1.0"
     bordercolor="#666666"
     pagecolor="#ffffff"
     id="base" />
  <metadata
     id="metadata7">
    <rdf:RDF>
      <cc:Work
         rdf:about="">
        <dc:format>image/svg+xml</dc:format>
        <dc:type
           rdf:resource="http://purl.org/dc/dcmitype/StillImage" />
        <dc:title></dc:title>
      </cc:Work>
    </rdf:RDF>
  </metadata>
  <g
     transform="translate(-2.5865034,-660.44684)"
     id="layer1"
     inkscape:groupmode="layer"
     inkscape:label="Layer 1">
    <g
       id="g883"
       transform="translate(-43.124103)">
      <g
         transform="translate(116.09782,8.6720983)"
         id="g869">
        <path
           sodipodi:nodetypes="cccsscc"
           inkscape:connector-curvature="0"
           d="m 81.943703,961.45801 c 0,0 -0.01619,0.33562 0.184254,0.45142 3.613968,1.01474 12.34563,1.86182 15.065231,0.38896 -1.50693,-11.06438 0.916955,-33.7479 -0.388598,-39.20369 -3.013407,-12.5928 -11.879776,-9.6769 -13.876694,-1.29262 -1.421795,5.96956 -0.04356,28.44339 -0.984194,39.65594 z"
           style="opacity:1;fill:#cccccc;fill-opacity:1;stroke:#000000;stroke-width:2.5;stroke-linecap:butt;stroke-linejoin:round;stroke-miterlimit:4;stroke-dasharray:none;stop-opacity:1"
           id="path861" />
        <path
           id="path863"
           style="opacity:1;fill:#cccccc;fill-opacity:1;stroke:#000000;stroke-width:2.5;stroke-linecap:butt;stroke-linejoin:round;stroke-miterlimit:4;stroke-dasharray:none;stop-opacity:1"
           d="m 59.684588,936.22133 c 0,0 0.04459,1.38343 0.905947,1.79263 15.17515,2.97077 51.308665,3.55965 61.988295,-3.38799 C 73.811966,712.13835 60.142901,796.56479 59.684588,936.22133 Z"
           inkscape:connector-curvature="0"
           sodipodi:nodetypes="cccc" />
        <path
           id="path963"
           style="opacity:1;fill:#cccccc;fill-opacity:1;stroke:#000000;stroke-width:2.5;stroke-linecap:butt;stroke-linejoin:round;stroke-miterlimit:4;stroke-dasharray:none;stop-opacity:1"
           d="m 66.107421,661.73915 c -1.280452,0.0732 -1.918875,0.88052 -2.765625,2.72852 -0.490625,1.07046 -1.305362,2.68537 -1.810547,3.58789 -0.505066,0.90273 -1.142053,2.22633 -1.414062,2.94141 -0.272143,0.71457 -0.849656,1.76148 -1.283204,2.32617 -0.753261,0.98103 -0.957024,1.03982 -4.583984,1.36133 -2.087684,0.18522 -5.362898,0.62361 -7.279297,0.97851 -2.200544,0.4056 -3.770818,0.48996 -4.259765,0.22656 -0.425823,-0.22914 -2.624374,-2.60826 -4.884766,-5.28711 -2.260323,-2.67879 -4.23236,-4.93688 -4.384766,-5.02148 -0.42499,-0.23358 -7.66454,4.00686 -7.68164,4.49805 -0.0081,0.23388 0.868423,2.9358 1.947265,6.0039 2.713162,7.71576 2.690633,7.52917 1.191407,9.41602 -0.690289,0.86853 -1.720746,2.06465 -2.289063,2.6582 -0.568326,0.59364 -2.125515,2.55683 -3.460937,4.36133 l -2.427735,3.28125 -2.988281,0.0977 c -1.643319,0.0541 -4.03739,-0.0987 -5.320313,-0.34375 -3.5146346,-0.66597 -5.8577219,-0.61198 -6.3320309,0.14453 -0.215502,0.3435 -0.7691197,2.15871 -1.2304687,4.0332 l -0.8378906,3.4082 1.2597656,0.82422 c 0.692976,0.45336 3.483784,1.92069 6.2031246,3.26172 2.719131,1.34091 5.048548,2.61859 5.173829,2.83789 0.125507,0.21945 0.318027,2.32902 0.429687,4.6875 0.111591,2.35803 0.477277,5.45849 0.8125,6.89063 0.895455,3.82695 0.726644,4.17416 -3.992187,8.1914 -4.9071485,4.17786 -5.6793443,4.99166 -5.6523442,5.95313 0.02295,0.82224 2.5657442,5.48012 3.3359372,6.10937 0.802887,0.65628 1.906306,0.42143 7.605469,-1.62109 3.017157,-1.08126 5.762463,-1.8828 6.099609,-1.7793 0.337797,0.10308 1.88726,1.3842 3.44336,2.84571 1.556224,1.46136 3.708947,3.10779 4.785156,3.6582 1.07507,0.55179 2.619359,1.58298 3.429687,2.29101 l 1.472657,1.28711 -0.445313,6.66407 -0.445312,6.66211 1.121094,0.51562 c 0.616492,0.28434 2.424447,0.83792 4.017578,1.23242 l 0.002,0.002 c 2.137048,0.52902 3.01623,0.5774 3.347656,0.18554 0.247776,-0.29223 1.563589,-2.80686 2.923828,-5.58984 1.360403,-2.78241 2.793044,-5.2436 3.185547,-5.4668 0.391033,-0.2331 1.262716,-0.42703 1.931641,-0.45703 0.317691,-0.0134 1.551968,-0.31243 1.790402,-0.35573 -16.293056,66.13527 -20.19859,75.79401 -20.336772,168.03377 10e-7,0 0.07977,2.47472 1.620588,3.20672 27.145812,5.31421 91.782645,6.36762 110.886725,-6.06055 -15.53816,-99.55785 -29.65917,-138.784 -32.16748,-161.22114 9.74914,3.6611 20.32643,1.99467 30.21989,-1.77145 17.51337,-6.43578 30.73515,-23.35794 30.56868,-42.17343 0.39448,-18.21366 -10.95806,-35.93054 -27.68945,-43.15625 -7.46528,-3.61806 -15.93455,-4.42857 -24.0957,-3.35742 -13.49155,0.9418 -25.652342,8.89173 -33.173836,19.94727 -0.03979,0.014 -0.05542,0.019 -0.0957,0.0332 -2.60004,0.91296 -5.178945,1.70155 -5.730468,1.75195 -1.024625,0.0946 -2.018016,-0.52901 -4.734375,-2.97851 -0.84707,-0.76395 -3.089335,-2.41903 -4.984375,-3.67774 -1.928597,-1.281 -3.50212,-2.56128 -3.574219,-2.9082 -0.114783,-0.55266 0.08538,-4.9274 0.498047,-10.88672 0.07979,-1.15056 -0.03555,-2.40732 -0.25586,-2.79297 -0.24874,-0.43509 -1.578406,-1.04926 -3.513672,-1.62304 -1.414244,-0.4194 -2.413369,-0.63963 -3.18164,-0.59571 z"
           inkscape:connector-curvature="0"
           sodipodi:nodetypes="cccccccccccccccccccccccccccccccccccccccccccccccccccccccccscccccc" />
        <path
           id="path3111"
           style="opacity:1;fill:#0088cc;fill-opacity:1;stroke:#000000;stroke-width:2.5;stroke-miterlimit:4;stroke-dasharray:none;stroke-opacity:1;stop-opacity:1"
           d="m 66.107421,661.73915 c -1.280452,0.0732 -1.918875,0.88052 -2.765625,2.72852 -0.490625,1.07046 -1.305362,2.68537 -1.810547,3.58789 -0.505066,0.90273 -1.142054,2.22633 -1.414062,2.94141 -0.272143,0.71457 -0.849656,1.76148 -1.283204,2.32617 -0.753261,0.98103 -0.957024,1.03982 -4.583984,1.36133 -2.087684,0.18522 -5.362898,0.62361 -7.279297,0.97851 -2.200544,0.4056 -3.770819,0.48996 -4.259765,0.22656 -0.425823,-0.22914 -2.624374,-2.60826 -4.884766,-5.28711 -2.260323,-2.67879 -4.23236,-4.93688 -4.384766,-5.02148 -0.42499,-0.23358 -7.66454,4.00686 -7.68164,4.49805 -0.0081,0.23388 0.868423,2.9358 1.947265,6.0039 2.713162,7.71576 2.690632,7.52917 1.191407,9.41602 -0.690289,0.86853 -1.720746,2.06465 -2.289063,2.6582 -0.568326,0.59364 -2.125516,2.55683 -3.460937,4.36133 l -2.427735,3.28125 -2.988281,0.0977 c -1.643319,0.0541 -4.03739,-0.0987 -5.320313,-0.34375 -3.5146342,-0.66597 -5.8577219,-0.61198 -6.3320309,0.14453 -0.215502,0.3435 -0.7691197,2.15871 -1.2304687,4.0332 l -0.8378906,3.4082 1.2597656,0.82422 c 0.692976,0.45336 3.4837844,1.92069 6.2031246,3.26172 2.719131,1.34091 5.048548,2.61859 5.173829,2.83789 0.125506,0.21945 0.318027,2.32902 0.429687,4.6875 0.111591,2.35803 0.477277,5.45849 0.8125,6.89063 0.895455,3.82695 0.726643,4.17416 -3.992187,8.1914 -4.907149,4.17786 -5.6793443,4.99166 -5.6523442,5.95313 0.02295,0.82224 2.5657442,5.48012 3.3359372,6.10937 0.802887,0.65628 1.906306,0.42143 7.605469,-1.62109 3.017157,-1.08126 5.762463,-1.8828 6.099609,-1.7793 0.337797,0.10308 1.88726,1.3842 3.44336,2.84571 1.556224,1.46136 3.708947,3.10779 4.785156,3.6582 1.07507,0.55179 2.61936,1.58298 3.429687,2.29101 l 1.472657,1.28711 -0.445313,6.66407 -0.445312,6.66211 1.121094,0.51562 c 0.616491,0.28434 2.424447,0.83792 4.017578,1.23242 l 0.002,0.002 c 2.137048,0.52902 3.01623,0.5774 3.347656,0.18554 0.247776,-0.29223 1.563589,-2.80686 2.923828,-5.58984 1.360403,-2.78241 2.793044,-5.2436 3.185547,-5.4668 0.391033,-0.2331 1.262716,-0.42703 1.931641,-0.45703 2.10089,-0.0887 2.380068,-0.6533 2.011718,-4.06445 -0.527352,-4.76307 -1.602607,-9.7828 -1.945312,-14.5 -0.25774,-0.45096 -1.803221,-1.16911 -4.197266,-1.95313 -2.083411,-0.68217 -4.557716,-1.76442 -5.5,-2.40429 -3.288515,-2.2326 -6.938239,-7.16521 -8.080078,-10.91797 -0.264698,-0.86988 -0.583473,-3.02417 -0.707031,-4.78907 -0.381605,-5.45046 1.687894,-10.61615 5.878906,-14.67773 2.585459,-2.51283 5.458773,-4.16389 8.875,-5.10547 4.29026,-1.18227 6.163232,-1.17351 10.742188,0.0547 4.02424,1.07922 4.31151,1.22302 6.560546,3.29101 6.48547,5.96349 8.962337,13.67351 6.828126,21.25196 -0.492895,1.75011 -0.793483,3.35957 -0.669922,3.57617 0.124267,0.21741 1.179299,1.10394 2.345703,1.9707 1.166432,0.86685 3.381175,2.61974 4.921875,3.89453 4.20823,3.48225 5.083535,4.08574 6.585937,4.55078 l 1.375,0.42579 0.421875,-0.64258 c -5.724124,-8.34918 -6.668202,-21.50906 -4.476562,-32.10547 1.299183,-5.26171 3.593763,-10.26799 6.652344,-14.76367 -0.03979,0.014 -0.05543,0.019 -0.0957,0.0332 -2.60004,0.91296 -5.178945,1.70155 -5.730468,1.75195 -1.024625,0.0946 -2.018016,-0.52901 -4.734375,-2.97851 -0.84707,-0.76395 -3.089335,-2.41903 -4.984375,-3.67774 -1.928597,-1.281 -3.50212,-2.56128 -3.574219,-2.9082 -0.114783,-0.55266 0.08538,-4.9274 0.498047,-10.88672 0.07979,-1.15056 -0.03555,-2.40732 -0.25586,-2.79297 -0.24874,-0.43509 -1.578406,-1.04926 -3.513672,-1.62304 -1.414243,-0.4194 -2.413369,-0.63963 -3.18164,-0.59571 z"
           inkscape:connector-curvature="0" />
        <path
           style="opacity:1;fill:#45a056;fill-opacity:1;stroke:#000000;stroke-width:2.5;stroke-miterlimit:4;stroke-dasharray:none;stroke-opacity:1;stop-opacity:1"
           d="m 85.026606,699.92507 c 4.494062,-18.201 20.849884,-33.38667 39.827704,-34.71144 8.16116,-1.07115 16.62921,-0.261 24.09449,3.35706 16.73139,7.22571 28.08458,24.94242 27.6901,43.15608 0.16647,18.81549 -12.79511,36.45399 -30.30848,42.88977 -10.35368,3.94131 -20.19221,5.94099 -30.4284,1.55028 -1.15905,-3.65286 2.0911,-8.27538 3.06156,-12.18111 2.23296,-5.62716 3.99922,-11.46525 6.55133,-16.94844 4.05966,-1.7274 7.31914,-1.04325 11.30999,-3.83832 3.92313,-3.0498 7.66964,-7.62984 6.95189,-12.94149 0.005,-5.72097 -4.59271,-10.683 -9.76651,-12.47283 -7.78742,-2.11566 -16.51446,3.52437 -17.52844,11.58588 -0.33548,3.46701 -0.25098,5.92269 0.40285,9.29289 -8.93746,4.7346 -17.651597,9.93825 -26.844416,14.15211 -6.214997,-8.29143 -7.273967,-21.96207 -5.013668,-32.89044 z"
           id="path3020"
           inkscape:connector-curvature="0"
           sodipodi:nodetypes="ccccccccccccccc" />
        <path
           style="opacity:1;fill:none;stroke:#000000;stroke-width:2.7401;stroke-linecap:round;stroke-linejoin:round;stroke-miterlimit:4;stroke-dasharray:none;stroke-opacity:1;stop-opacity:1"
           d="M 53.288182,910.4795 124.09027,849.61229 56.104174,818.28848 111.21716,788.72723 68.172712,763.67531"
           id="path984"
           inkscape:connector-curvature="0"
           sodipodi:nodetypes="ccccc" />
        <path
           style="opacity:1;fill:none;stroke:#000000;stroke-width:2.7401;stroke-linecap:round;stroke-linejoin:round;stroke-miterlimit:4;stroke-dasharray:none;stroke-opacity:1;stop-opacity:1"
           d="M 130.52682,905.4692 52.483613,852.6185 117.25143,815.78327 62.943012,787.22408 107.99889,767.18255"
           id="path986"
           inkscape:connector-curvature="0"
           sodipodi:nodetypes="ccccc" />
      </g>
    </g>
  </g>
</svg>
