<?xml version="1.0" encoding="UTF-8" standalone="no"?>
<svg
   xmlns:dc="http://purl.org/dc/elements/1.1/"
   xmlns:cc="http://creativecommons.org/ns#"
   xmlns:rdf="http://www.w3.org/1999/02/22-rdf-syntax-ns#"
   xmlns:svg="http://www.w3.org/2000/svg"
   xmlns="http://www.w3.org/2000/svg"
   xmlns:sodipodi="http://sodipodi.sourceforge.net/DTD/sodipodi-0.dtd"
   xmlns:inkscape="http://www.inkscape.org/namespaces/inkscape"
   id="Layer_1"
   data-name="Layer 1"
   viewBox="0 0 180.00001 179.99999"
   version="1.1"
   sodipodi:docname="star.svg"
   width="180"
   height="180"
   inkscape:version="0.92.4 (5da689c313, 2019-01-14)">
  <title
     id="title855">Makers in Chicago Star</title>
  <metadata
     id="metadata16">
    <rdf:RDF>
      <cc:Work
         rdf:about="">
        <dc:format>image/svg+xml</dc:format>
        <dc:type
           rdf:resource="http://purl.org/dc/dcmitype/StillImage" />
        <dc:title>Makers in Chicago Star</dc:title>
        <dc:rights>
          <cc:Agent>
            <dc:title>MIT LICENSE</dc:title>
          </cc:Agent>
        </dc:rights>
      </cc:Work>
    </rdf:RDF>
  </metadata>
  <sodipodi:namedview
     pagecolor="#ffffff"
     bordercolor="#666666"
     borderopacity="1"
     objecttolerance="10"
     gridtolerance="10"
     guidetolerance="10"
     inkscape:pageopacity="0"
     inkscape:pageshadow="2"
     inkscape:window-width="2560"
     inkscape:window-height="1377"
     id="namedview14"
     showgrid="false"
     inkscape:zoom="8"
     inkscape:cx="89.890036"
     inkscape:cy="-22.086587"
     inkscape:window-x="-8"
     inkscape:window-y="-8"
     inkscape:window-maximized="1"
     inkscape:current-layer="Layer_1"
     fit-margin-top="0"
     fit-margin-left="0"
     fit-margin-right="0"
     fit-margin-bottom="0" />
  <defs
     id="defs4">
    <style
       id="style2">.cls-1{fill:#e4002b;}.cls-2{fill:#41b6e6;}</style>
  </defs>
  <g
     id="g822"
     transform="matrix(0.64384159,0,0,0.64384159,-17.759213,-26.914465)"
     style="stroke-width:1.553177">
    <path
       inkscape:connector-curvature="0"
       id="path4723"
       d="m 167.36523,48.615234 -24.3789,90.865236 -81.509768,-21.87109 79.832028,46.05859 a 31.630718,31.630718 0 0 1 26.06055,-13.70899 31.630718,31.630718 0 0 1 26.03125,13.72461 l 79.85938,-46.07421 -81.51758,21.87109 z m -108.410152,73.310546 59.660152,59.66406 -66.484371,66.48633 90.855471,-24.3789 21.8789,81.54687 V 213.0957 a 31.630718,31.630718 0 0 1 -29.12695,-31.50586 31.630718,31.630718 0 0 1 3.10156,-13.57422 z m 216.828122,0 -79.88086,46.08594 A 31.630718,31.630718 0 0 1 199,181.58984 31.630718,31.630718 0 0 1 169.86523,213.10938 v 92.13476 l 21.87696,-81.54687 90.86523,24.3789 -66.48633,-66.48633 z"
       style="fill:#2f847c;fill-opacity:1;stroke:none;stroke-width:6.52334356;stroke-miterlimit:4;stroke-dasharray:none;stroke-opacity:1" />
    <path
       transform="matrix(1.5531771,0,0,1.5531771,27.583203,41.80293)"
       id="path843"
       d="M 90 72.300781 A 17.699561 17.699561 0 0 0 75.544922 79.802734 L 89.998047 88.142578 L 104.44336 79.808594 A 17.699561 17.699561 0 0 0 90 72.300781 z M 73.945312 82.595703 A 17.699561 17.699561 0 0 0 72.300781 90 A 17.699561 17.699561 0 0 0 88.388672 107.61914 L 88.388672 90.927734 L 73.945312 82.595703 z M 106.05273 82.595703 L 91.607422 90.929688 L 91.607422 107.61328 A 17.699561 17.699561 0 0 0 107.69922 90 A 17.699561 17.699561 0 0 0 106.05273 82.595703 z "
       style="opacity:1;fill:#45a056;fill-opacity:1;stroke:none;stroke-width:5.00000048;stroke-linecap:round;stroke-linejoin:bevel;stroke-miterlimit:4;stroke-dasharray:none;stroke-opacity:1;paint-order:fill markers stroke" />
  </g>
</svg>
